<svg width="30" height="40" viewBox="0 0 30 40" fill="none" xmlns="http://www.w3.org/2000/svg">
<mask id="mask0_248_5670" style="mask-type:alpha" maskUnits="userSpaceOnUse" x="0" y="0" width="30" height="40">
<path fill-rule="evenodd" clip-rule="evenodd" d="M0.0550608 10.4542C0.0581082 10.4432 0.0611421 10.4322 0.0655692 10.4213C0.0959124 10.3505 0.137765 10.2853 0.189383 10.2277L9.4751 0.227748C9.47789 0.224261 9.48556 0.219378 9.48556 0.219378C9.50021 0.206473 9.51521 0.194615 9.53055 0.183454C9.57903 0.139858 9.63344 0.103237 9.69203 0.0749861C9.7154 0.0645229 9.73912 0.0554548 9.76353 0.0477818C9.82631 0.0251116 9.89188 0.0118582 9.9585 0.0087193C9.96526 0.00838945 9.97155 0.00642179 9.9779 0.00443906C9.98497 0.00222889 9.99209 0 10 0H29.2857C29.6802 0 30 0.319824 30 0.714286V39.2857C30 39.6802 29.6802 40 29.2857 40H0.714286C0.319824 40 0 39.6802 0 39.2857V10.7143C0 10.707 0.00205542 10.7003 0.00408539 10.6937L0.00408605 10.6937C0.00606613 10.6873 0.00802177 10.6809 0.00802177 10.6742C0.0118582 10.6076 0.0254604 10.5416 0.0477818 10.4785C0.0505845 10.4704 0.0528258 10.4623 0.0550596 10.4542L0.0550608 10.4542ZM9.28572 10V2.53348L2.35212 10H9.28572ZM1.42857 11.4286H10C10.3945 11.4286 10.7143 11.1087 10.7143 10.7143V1.42857H28.5714V38.5714H1.42857V11.4286ZM12.0278 18.223C11.9932 18.2837 11.9493 18.3388 11.898 18.3866C11.8936 18.3905 11.8905 18.3953 11.8874 18.4C11.8839 18.4054 11.8804 18.4107 11.875 18.4148L8.30357 21.272C7.9956 21.5186 7.54569 21.4687 7.29945 21.1607C7.05287 20.8527 7.10275 20.4028 7.41071 20.1566L9.39209 18.5714H7.14286C6.74839 18.5714 6.42857 18.2516 6.42857 17.8571C6.42857 17.4627 6.74839 17.1429 7.14286 17.1429H9.39209L7.41071 15.557C7.10275 15.3108 7.05287 14.8608 7.29945 14.5529C7.54569 14.2449 7.9956 14.195 8.30357 14.4413L11.875 17.2984C11.8803 17.3026 11.8838 17.308 11.8873 17.3134C11.8904 17.3182 11.8936 17.323 11.898 17.327C11.9493 17.3751 11.9932 17.4302 12.0278 17.4913C12.0456 17.514 12.0616 17.538 12.0755 17.5628C12.1652 17.7487 12.1652 17.9656 12.0755 18.1515C12.0612 18.1763 12.0452 18.2 12.0278 18.223ZM22.8571 17.1429H20.6079L22.5893 15.5577C22.8973 15.3115 22.9471 14.8615 22.7005 14.5536C22.4543 14.2456 22.0044 14.1957 21.6964 14.4423L18.125 17.2995C18.1196 17.3035 18.1161 17.3089 18.1126 17.3143C18.1095 17.319 18.1064 17.3238 18.102 17.3277C18.0507 17.3755 18.0068 17.4306 17.9722 17.4913C17.9548 17.5143 17.9388 17.538 17.9245 17.5628C17.8348 17.7487 17.8348 17.9656 17.9245 18.1515C17.9388 18.1763 17.9548 18.2 17.9722 18.223C18.0068 18.2837 18.0507 18.3388 18.102 18.3866C18.1064 18.3905 18.1095 18.3953 18.1126 18.4C18.1161 18.4054 18.1196 18.4107 18.125 18.4148L21.6964 21.272C22.0044 21.5186 22.4543 21.4687 22.7005 21.1607C22.9471 20.8527 22.8973 20.4028 22.5893 20.1566L20.6079 18.5714H22.8571C23.2516 18.5714 23.5714 18.2516 23.5714 17.8571C23.5714 17.4627 23.2516 17.1429 22.8571 17.1429ZM9.03913 27.5893C10.016 25.1559 12.3779 23.5638 15 23.5714C17.6221 23.5638 19.984 25.1559 20.9609 27.5893C21.0585 27.8261 21.0216 28.0974 20.8646 28.2997C20.7073 28.5024 20.4534 28.6049 20.1998 28.5686C19.9459 28.5327 19.7311 28.3632 19.6366 28.125C18.8731 26.2347 17.0386 24.9969 15 24.9969C12.9614 24.9969 11.1269 26.2347 10.3634 28.125C10.2138 28.4881 9.79946 28.6621 9.43534 28.5149C9.07157 28.3677 8.89439 27.9541 9.03913 27.5893Z" fill="white"/>
</mask>
<g mask="url(#mask0_248_5670)">
<rect x="-6.3266" y="-4.75745" width="45.3333" height="46.6667" fill="#00C5CA"/>
</g>
</svg>
